TITLE ""
FILE "Step2_Track41.mp3" MP3
  TRACK 01 AUDIO
    TITLE "Step2_Track41_01"
    INDEX 01 00:00:00
  TRACK 02 AUDIO
    TITLE "Step2_Track41_02"
    INDEX 01 00:00:22
  TRACK 03 AUDIO
    TITLE "Step2_Track41_03"
    INDEX 01 00:01:72
  TRACK 04 AUDIO
    TITLE "Step2_Track41_04"
    INDEX 01 00:02:46
  TRACK 05 AUDIO
    TITLE "Step2_Track41_05"
    INDEX 01 00:03:42
  TRACK 06 AUDIO
    TITLE "Step2_Track41_06"
    INDEX 01 00:03:67
  TRACK 07 AUDIO
    TITLE "Step2_Track41_07"
    INDEX 01 00:06:15
  TRACK 08 AUDIO
    TITLE "Step2_Track41_08"
    INDEX 01 00:06:42
  TRACK 09 AUDIO
    TITLE "Step2_Track41_09"
    INDEX 01 00:07:44
  TRACK 10 AUDIO
    TITLE "Step2_Track41_10"
    INDEX 01 00:07:51
  TRACK 11 AUDIO
    TITLE "Step2_Track41_11"
    INDEX 01 00:09:46
  TRACK 12 AUDIO
    TITLE "Step2_Track41_12"
    INDEX 01 00:10:11
  TRACK 13 AUDIO
    TITLE "Step2_Track41_13"
    INDEX 01 00:11:08
  TRACK 14 AUDIO
    TITLE "Step2_Track41_14"
    INDEX 01 00:11:22
  TRACK 15 AUDIO
    TITLE "Step2_Track41_15"
    INDEX 01 00:13:52
  TRACK 16 AUDIO
    TITLE "Step2_Track41_16"
    INDEX 01 00:14:08
  TRACK 17 AUDIO
    TITLE "Step2_Track41_17"
    INDEX 01 00:15:08
  TRACK 18 AUDIO
    TITLE "Step2_Track41_18"
    INDEX 01 00:15:16
  TRACK 19 AUDIO
    TITLE "Step2_Track41_19"
    INDEX 01 00:18:32
  TRACK 20 AUDIO
    TITLE "Step2_Track41_20"
    INDEX 01 00:18:63
  TRACK 21 AUDIO
    TITLE "Step2_Track41_21"
    INDEX 01 00:19:55
  TRACK 22 AUDIO
    TITLE "Step2_Track41_22"
    INDEX 01 00:19:64
  TRACK 23 AUDIO
    TITLE "Step2_Track41_23"
    INDEX 01 00:22:57
  TRACK 24 AUDIO
    TITLE "Step2_Track41_24"
    INDEX 01 00:23:03
  TRACK 25 AUDIO
    TITLE "Step2_Track41_25"
    INDEX 01 00:24:09
  TRACK 26 AUDIO
    TITLE "Step2_Track41_26"
    INDEX 01 00:24:17
  TRACK 27 AUDIO
    TITLE "Step2_Track41_27"
    INDEX 01 00:26:10
  TRACK 28 AUDIO
    TITLE "Step2_Track41_28"
    INDEX 01 00:26:29
  TRACK 29 AUDIO
    TITLE "Step2_Track41_29"
    INDEX 01 00:27:31
  TRACK 30 AUDIO
    TITLE "Step2_Track41_30"
    INDEX 01 00:27:40
  TRACK 31 AUDIO
    TITLE "Step2_Track41_31"
    INDEX 01 00:30:39
  TRACK 32 AUDIO
    TITLE "Step2_Track41_32"
    INDEX 01 00:30:60
  TRACK 33 AUDIO
    TITLE "Step2_Track41_33"
    INDEX 01 00:31:48
  TRACK 34 AUDIO
    TITLE "Step2_Track41_34"
    INDEX 01 00:32:01
  TRACK 35 AUDIO
    TITLE "Step2_Track41_35"
    INDEX 01 00:35:20
  TRACK 36 AUDIO
    TITLE "Step2_Track41_36"
    INDEX 01 00:35:38
  TRACK 37 AUDIO
    TITLE "Step2_Track41_37"
    INDEX 01 00:36:41
  TRACK 38 AUDIO
    TITLE "Step2_Track41_38"
    INDEX 01 00:36:47
  TRACK 39 AUDIO
    TITLE "Step2_Track41_39"
    INDEX 01 00:38:23
  TRACK 40 AUDIO
    TITLE "Step2_Track41_40"
    INDEX 01 00:38:60
  TRACK 41 AUDIO
    TITLE "Step2_Track41_41"
    INDEX 01 00:39:57
  TRACK 42 AUDIO
    TITLE "Step2_Track41_42"
    INDEX 01 00:39:69
  TRACK 43 AUDIO
    TITLE "Step2_Track41_43"
    INDEX 01 00:43:14
